<svg xmlns="http://www.w3.org/2000/svg" width="256" height="256"><path fill-opacity=".016" d="M0 128.004v128.004l128.25-.254 128.25-.254.254-127.75L257.008 0H0v128.004m.485.496c0 70.4.119 99.053.265 63.672.146-35.38.146-92.98 0-128C.604 29.153.485 58.1.485 128.5" fill="#1976D2" fill-rule="evenodd"/><path fill-opacity=".195" d="M170 15v9h-17v10l7.75.118c4.262.066 8.088.066 8.5 0 .412-.065.75 5.762.75 12.949v13.068l-4.609 5.682c-2.535 3.126-16.548 19.922-31.141 37.326l-26.532 31.644-5.66-6.644c-3.112-3.654-12.765-15.104-21.45-25.446-8.685-10.342-16.167-18.667-16.627-18.5-.769.278-62.254 71.818-63.61 74.011-.327.531.805 2.41 2.517 4.176L6 165.595V249h237.906l-.599-46.75c-.593-46.32-.581-46.734 1.354-45.02 1.881 1.667 2.13 1.551 6.752-3.142l4.799-4.872-37.606-44.144L181 60.928V47.464c0-7.405.338-13.411.75-13.346.412.066 4.238.066 8.5 0L198 34V24h-17V6h-11v9M63.745 228.588c-1.058 1.059-.928 10.412.146 10.412 1.106 0 1.851-5.856 1.133-8.9-.293-1.241-.869-1.922-1.279-1.512M174 233.3c0 5.936 1.911 8.146 2.118 2.45.161-4.406-.118-6.077-1.202-7.2-.559-.58-.916 1.272-.916 4.75m42 0c0 5.936 1.911 8.146 2.118 2.45.161-4.406-.118-6.077-1.202-7.2-.559-.58-.916 1.272-.916 4.75m-190.25-3.611c-2.697.705-2.077 3.091 1.25 4.811 3.887 2.01 3.803 3.274-.25 3.777-2.817.349-2.684.424 1 .563 3.549.134 4.25-.15 4.25-1.719 0-1.149-1.179-2.367-3.038-3.137-3.642-1.508-3.379-3.25.62-4.116 2.601-.563 2.646-.632.418-.634-1.375-.001-3.288.204-4.25.455m80.25 4.252c0 2.782.45 5.059 1 5.059s1-.9 1-2c0-1.631.667-2 3.617-2 3.124 0 3.545.272 3.093 2-.3 1.148-.03 2 .634 2.001.769 0 1.039-1.696.805-5.066-.316-4.565-1.605-6.23-1.636-2.114-.009 1.16-1.017 1.776-3.263 1.992-2.69.26-3.25-.032-3.25-1.691 0-1.102-.45-2.282-1-2.622-.616-.381-1 1.323-1 4.441m61.813-4.258c.721.289 1.584.253 1.916-.079.332-.332-.258-.568-1.312-.525-1.165.048-1.402.285-.604.604M162.2 231.2c-.66.66-1.2 2.145-1.2 3.3 0 3.094 1.949 4.519 5.95 4.35 3.389-.143 3.414-.17.553-.59-4.515-.664-5.869-3.751-2.932-6.689 1.235-1.234 1.277-1.571.2-1.571-.754 0-1.911.54-2.571 1.2M36 235.5c0 1.925.45 3.5 1 3.5s1-1.575 1-3.5-.45-3.5-1-3.5-1 1.575-1 3.5m5 0c0 1.925.401 3.5.891 3.5.489 0 1.074-1.575 1.299-3.5.282-2.414.005-3.5-.891-3.5-.818 0-1.299 1.296-1.299 3.5m6.81 0c.225 1.925.81 3.5 1.299 3.5.49 0 .891-1.575.891-3.5 0-2.204-.481-3.5-1.299-3.5-.896 0-1.173 1.086-.891 3.5m6.23-2.048c-1.852 2.231-.834 5.006 1.97 5.377 2.371.313 2.398.26.578-1.106-2.377-1.782-1.538-4.41 1.601-5.009 2.147-.41 2.125-.451-.317-.578-1.445-.075-3.169.517-3.832 1.316m15.77 2.048c.225 1.925.81 3.5 1.299 3.5.49 0 .891-1.575.891-3.5 0-2.204-.481-3.5-1.299-3.5-.896 0-1.173 1.086-.891 3.5m6.23-2.048c-1.52 1.831-.415 5.548 1.65 5.548 1.304 0 1.343-.255.243-1.581-1.034-1.245-1.058-1.989-.114-3.5 1.396-2.236-.006-2.603-1.779-.467m6.073.358c1.027 1.644 1.018 2.327-.046 3.609-.721.869-.862 1.581-.312 1.581s1.592-.713 2.315-1.584c1.415-1.706.388-4.43-1.968-5.215-1-.334-.998-.007.011 1.609M88 235.5c0 1.925.401 3.5.891 3.5.489 0 1.074-1.575 1.299-3.5.282-2.414.005-3.5-.891-3.5-.818 0-1.299 1.296-1.299 3.5m5.996-2.005c.682.822 1.004 2.397.716 3.5-.311 1.188-.033 2.005.681 2.005.789 0 1.064-1.209.797-3.5-.266-2.278-.937-3.5-1.922-3.5-1.229 0-1.28.28-.272 1.495m31.609-.082c.319.83-.209 1.606-1.282 1.884-1.656.428-1.663.482-.073.587.963.064 1.75.791 1.75 1.616 0 .825.585 1.5 1.299 1.5.896 0 1.173-1.086.891-3.5-.243-2.083-.959-3.5-1.768-3.5-.76 0-1.12.623-.817 1.413M132 235.5c0 1.925.401 3.5.891 3.5.489 0 1.074-1.575 1.299-3.5.282-2.414.005-3.5-.891-3.5-.818 0-1.299 1.296-1.299 3.5m5.75-2.899c.688.311 1.25 1.878 1.25 3.482 0 1.605.479 2.917 1.063 2.917.597 0 .926-1.422.75-3.242-.229-2.368-.852-3.306-2.313-3.482-1.1-.132-1.437.014-.75.325m11.823.728c.355.925-.122 1.676-1.25 1.968-1.736.449-1.735.477.034.587 1.218.076 1.659.632 1.281 1.616-.357.931.006 1.5.957 1.5 1.894 0 1.581-6.124-.346-6.757-.769-.252-1.029.166-.676 1.086m30.237 2.171c.225 1.925.81 3.5 1.299 3.5.49 0 .891-1.575.891-3.5 0-2.204-.481-3.5-1.299-3.5-.896 0-1.173 1.086-.891 3.5m6.19 0c0 2.204.481 3.5 1.299 3.5.896 0 1.173-1.086.891-3.5-.225-1.925-.81-3.5-1.299-3.5-.49 0-.891 1.575-.891 3.5m6.5 0c0 1.925.45 3.5 1 3.5s1-1.575 1-3.5-.45-3.5-1-3.5-1 1.575-1 3.5m5.5 0c0 1.925.45 3.5 1 3.5s1-1.312 1-2.917c0-1.604.563-3.143 1.25-3.421.688-.277.238-.54-1-.583-1.92-.067-2.25.435-2.25 3.421m8.384-2.058c-.958 2.495.062 5.026 2.127 5.279 1.094.134 1.427-.011.739-.322-.687-.311-1.25-1.623-1.25-2.916 0-1.796.648-2.448 2.75-2.767 2.535-.384 2.494-.428-.531-.566-2.046-.094-3.49.393-3.835 1.292m15.612.053c.682.822 1.004 2.397.716 3.5-.289 1.103-.117 2.005.382 2.005.498 0 .906-1.575.906-3.5 0-2.562-.435-3.5-1.622-3.5-1.327 0-1.396.273-.382 1.495M120 237.5c0 .825.661 1.5 1.469 1.5.894 0 1.243-.586.893-1.5-.317-.825-.978-1.5-1.469-1.5-.491 0-.893.675-.893 1.5m24 0c0 .825.375 1.5.833 1.5.459 0 .834-.675.834-1.5s-.375-1.5-.834-1.5c-.458 0-.833.675-.833 1.5" fill="#1976D2" fill-rule="evenodd"/><path fill-opacity=".218" d="M170 15.5V25h-17v9h17v26.625l-18.25 21.959c-42.889 51.606-43.994 52.832-45.706 50.729-10.971-13.477-41.475-49.296-41.935-49.243-.335.038-12.084 13.557-26.109 30.042a101716.107 101716.107 0 01-31.898 37.48l-6.398 7.507 3.148 3.248L6 165.595V249h237v-46.508c0-46.241.012-46.502 1.998-45.261 1.775 1.108 2.503.742 6.53-3.285l4.533-4.533-37.495-43.957L181.071 61.5l-.035-13.75L181 34h17v-9h-17V6h-11v9.5M41.71 131.209L20.075 156.5l-.037 32.25L20 221h15.929l.003-27.24c.003-24.626.169-27.36 1.727-28.5 2.417-1.767 4.752-1.569 6.686.569 1.3 1.436 1.655 3.904 1.655 11.5 0 5.319.243 9.671.54 9.671.297 0 2.34-.919 4.541-2.042 2.201-1.122 6.796-2.297 10.211-2.609 5.874-.537 10.658.498 18.958 4.105 1.601.695 1.75-.095 1.75-9.276 0-7.789.352-10.387 1.571-11.607 2.007-2.007 4.851-2.007 6.858 0 1.35 1.351 1.571 5.353 1.571 28.5V221h15v-64.543l-20.599-23.979c-11.33-13.188-21.152-24.559-21.827-25.269-.987-1.039-5.474 3.671-22.864 24M225 137.378c0 .207.787.995 1.75 1.75 1.586 1.243 1.621 1.208.378-.378-1.307-1.666-2.128-2.195-2.128-1.372M54.5 192.412c-1.65.733-4.119 2.545-5.486 4.027-2.272 2.46-2.519 3.64-2.861 13.627L45.779 221H81v-10.777c0-12.24-.727-14.023-7.026-17.236-4.596-2.345-14.814-2.646-19.474-.575M35 229c0 .55.675 1 1.5 1s1.5-.45 1.5-1-.675-1-1.5-1-1.5.45-1.5 1m28 4.5c0 4.222.348 5.5 1.5 5.5 1 0 1.5-1 1.5-3 0-2.333.444-3 2-3s2 .667 2 3c0 1.65.45 3 1 3s1-1.545 1-3.433c0-2.549-.512-3.595-1.991-4.064-1.095-.348-2.394-.383-2.886-.079-.493.305-1.13-.341-1.416-1.435C64.642 225.914 63 228.044 63 233.5m110.667-4.833c-.367.366-.667 2.841-.667 5.5 0 3.629.374 4.833 1.5 4.833 1 0 1.5-1 1.5-3 0-2.333.444-3 2-3s2 .667 2 3c0 2 .5 3 1.5 3 1.974 0 2.011-5.331.048-6.96-.799-.663-2.374-.913-3.5-.555-1.613.512-2.048.211-2.048-1.418 0-2.05-1.052-2.682-2.333-1.4m42.176 4.834c-.244 3.918.017 5.501.907 5.5.722 0 1.25-1.268 1.25-3.001 0-2.333.444-3 2-3s2 .667 2 3c0 2 .5 3 1.5 3 1.974 0 2.011-5.331.048-6.96-.799-.663-2.374-.913-3.5-.555-1.613.512-2.048.211-2.048-1.418 0-1.137-.408-2.067-.907-2.067-.5 0-1.062 2.476-1.25 5.501M25.25 229.662c-2.196.886-1.345 3.238 1.75 4.838 3.903 2.018 3.818 3.5-.2 3.5-2.423 0-2.919.281-2.043 1.157 1.395 1.395 7.368-.031 7.994-1.909.224-.672-1.316-2.24-3.422-3.485L25.5 231.5l3.25-.313c1.788-.173 3.25-.735 3.25-1.25 0-.972-4.562-1.158-6.75-.275M106 234c0 2.75.45 5 1 5s1-.9 1-2c0-1.556.667-2 3-2s3 .444 3 2c0 1.111.667 2 1.5 2 1.133 0 1.5-1.222 1.5-5s-.367-5-1.5-5c-.933 0-1.5.944-1.5 2.5 0 2.111-.467 2.5-3 2.5s-3-.389-3-2.5c0-1.375-.45-2.5-1-2.5s-1 2.25-1 5m57.223-3.443c-2.432 1.703-2.952 5.593-.967 7.24 1.926 1.599 6.477 2.49 7.937 1.554.89-.571.222-1-2.089-1.345-6.245-.931-6.462-6.802-.269-7.269 1.191-.089 2.165-.517 2.165-.95 0-1.361-4.457-.855-6.777.77M43.25 231.706c-1.812.349-2.25 1.101-2.25 3.864 0 1.886.45 3.43 1 3.43s1-1.35 1-3c0-2.533.389-3 2.5-3 2.111 0 2.5.467 2.5 3 0 1.65.45 3 1 3 1.703 0 1.174-6.719-.582-7.393-.87-.334-1.882-.546-2.25-.471-.367.075-1.681.331-2.918.57m13.25.167c-2.332.495-3.07 1.247-3.316 3.381-.255 2.212.215 2.947 2.422 3.786 1.506.573 3.449.719 4.316.325 1.222-.555 1.014-.813-.922-1.142-1.375-.233-2.796-.901-3.157-1.483-1.046-1.684.199-3.74 2.264-3.74 1.041 0 1.893-.45 1.893-1s-.112-.947-.25-.882c-.138.065-1.6.405-3.25.755m20.75.158c-3.205 1.288-3.052 5.646.25 7.151 3.588 1.635 7.5-.288 7.5-3.685 0-1.813-.739-2.827-2.565-3.522-1.411-.536-2.648-.946-2.75-.912-.102.035-1.198.471-2.435.968m13-.325c-1.812.349-2.25 1.101-2.25 3.864 0 1.886.45 3.43 1 3.43s1-1.35 1-3c0-2.333.444-3 2-3s2 .667 2 3c0 2 .5 3 1.5 3 1.837 0 2.059-5.041.3-6.8-1.222-1.222-1.597-1.256-5.55-.494m31.25.294c-.351.567.49 1 1.941 1 3.561 0 3.207 1.62-.516 2.365-2.236.447-2.983 1.096-2.737 2.375.255 1.324 1.367 1.783 4.487 1.852l4.148.092-.566-3.592c-.312-1.976-1.059-3.923-1.662-4.327-1.579-1.059-4.375-.93-5.095.235m12.75-.294c-1.812.349-2.25 1.101-2.25 3.864 0 1.886.45 3.43 1 3.43s1-1.35 1-3c0-2.333.444-3 2-3s2 .667 2 3c0 2 .5 3 1.5 3 2.125 0 2.052-6.574-.082-7.393-.87-.334-1.882-.546-2.25-.471-.367.075-1.68.331-2.918.57m10.816.232c-1.052.666-.518 1.001 2 1.258l3.434.349-3.927 1.751c-3.102 1.382-3.669 2.008-2.701 2.977.675.675 2.963 1.255 5.084 1.288l3.857.062-.561-3.562c-.757-4.804-3.565-6.415-7.186-4.123m55.184-.232c-1.812.349-2.25 1.101-2.25 3.864 0 1.886.45 3.43 1 3.43s1-1.167 1-2.594c0-1.752.649-2.763 2-3.116 1.828-.478 2.984-2.469 1.25-2.154-.412.075-1.762.331-3 .57m9.073.053c-2.93.486-4.624 2.716-3.87 5.094.673 2.12 4.917 3.655 6.833 2.47.77-.476.31-.946-1.296-1.325-1.579-.373-2.49-1.287-2.49-2.498 0-1.211.911-2.125 2.49-2.498 2.939-.694 1.498-1.769-1.667-1.243M35 235.5c0 2.444.452 3.5 1.5 3.5s1.5-1.056 1.5-3.5-.452-3.5-1.5-3.5-1.5 1.056-1.5 3.5m151.19.25c.303 3.665.401 3.749 4.31 3.709 3.883-.039 4.009-.149 4.31-3.75.237-2.827-.06-3.709-1.25-3.709-1.067 0-1.56.948-1.56 3 0 2.333-.444 3-2 3s-2-.667-2-3c0-1.65-.477-3-1.06-3-.614 0-.93 1.579-.75 3.75m-108.81-1.298c-.763 1.989.367 3.548 2.572 3.548 1.966 0 3.027-1.717 2.317-3.75-.601-1.724-4.207-1.575-4.889.202M122.5 237c-.34.55.309 1 1.441 1 1.132 0 2.059-.45 2.059-1s-.648-1-1.441-1-1.719.45-2.059 1m23.5-.167c0 1.409 1.126 2.056 2.598 1.491 2.087-.801 1.695-2.324-.598-2.324-1.1 0-2 .375-2 .833" fill="#1976D2" fill-rule="evenodd"/><path fill-opacity=".804" d="M171 15.5V25h-18v9h18v25.863l-12.75 15.428c-27.185 32.894-49.781 59.615-50.449 59.661-.385.026-10.018-11.089-21.409-24.702a25185.7 25185.7 0 00-21.364-25.514c-.361-.42-15.083 16.084-32.715 36.677L.254 158.854l3.373 3.269L7 165.392V249h236l.032-47.25c.027-40.94.22-47.001 1.446-45.383 1.347 1.779 1.626 1.685 5.935-2 2.487-2.127 4.524-4.317 4.526-4.867.003-.55-16.857-20.783-37.467-44.962L180 60.575V34h18v-9h-18V6h-9v9.5m-22.762 95.25L122.07 142.5l-.035 39.25L122 221h29v-27.345c0-25.221.142-27.474 1.829-29 2.484-2.248 4.434-2.08 6.879.595 1.132 1.238 8.523 12.375 16.425 24.75l14.367 22.5.268-23.78.268-23.779 2.356-1.074c1.701-.775 2.945-.757 4.482.065 2.09 1.119 2.126 1.607 2.126 29.103V221h29V140.389l-16.649-19.445C189.828 94.639 175.939 79 175.102 79c-.382 0-12.471 14.287-26.864 31.75M40.736 131.64l-21.763 25.558.263 32.151.264 32.151h16l.267-26.918c.182-18.427.628-27.354 1.414-28.301.649-.782 2.49-1.252 4.234-1.082l3.085.301.283 11.25c.155 6.188.511 11.25.79 11.25.278 0 2.401-.975 4.717-2.166 2.822-1.452 6.701-2.314 11.768-2.617 6.408-.383 8.499-.071 13.75 2.049L82 187.768v-9.45c0-10.995.872-13.318 5-13.318 1.873 0 3.303.698 3.965 1.934.639 1.195 1.035 12.113 1.035 28.542v26.608l7.75-.292 7.75-.292.264-32.286.264-32.285-21.764-25.396c-11.97-13.968-22.214-25.409-22.764-25.424-.55-.015-10.794 11.474-22.764 25.531M161 201v20h13.059c10.158 0 12.902-.278 12.35-1.25-2.36-4.163-24.684-38.75-25.011-38.75-.219 0-.398 9-.398 20m-106.579-9.104c-2.243 1.019-5.069 3.113-6.281 4.653-2.015 2.562-2.178 3.74-1.921 13.875L46.5 221.5h35l.282-11.185.282-11.184-3.513-3.513c-5.711-5.712-16.19-7.328-24.13-3.722M35 229c0 .55.675 1 1.5 1s1.5-.45 1.5-1-.675-1-1.5-1-1.5.45-1.5 1m28 5c0 4.667.333 6 1.5 6 1.048 0 1.5-1.056 1.5-3.5 0-4.641 2.743-4.856 3.187-.25.398 4.129 3.174 4.464 3.635.44.4-3.485-1.323-5.69-4.444-5.69-1.447 0-2.378-.587-2.378-1.5 0-.825-.675-1.5-1.5-1.5-1.167 0-1.5 1.333-1.5 6m110 0c0 4.667.333 6 1.5 6 1.048 0 1.5-1.056 1.5-3.5 0-2.833.381-3.5 2-3.5s2 .667 2 3.5c0 2.502.444 3.5 1.557 3.5 1.214 0 1.49-.938 1.25-4.25-.288-3.989-.506-4.269-3.557-4.563-2.013-.194-3.25-.86-3.25-1.75 0-.791-.675-1.437-1.5-1.437-1.167 0-1.5 1.333-1.5 6m42 0c0 4.667.333 6 1.5 6 1.048 0 1.5-1.056 1.5-3.5 0-2.833.381-3.5 2-3.5s2 .667 2 3.5c0 2.502.444 3.5 1.557 3.5 1.214 0 1.49-.938 1.25-4.25-.288-3.989-.506-4.269-3.557-4.563-2.013-.194-3.25-.86-3.25-1.75 0-.791-.675-1.437-1.5-1.437-1.167 0-1.5 1.333-1.5 6m-190.912-3.606c-1.334 1.607.525 4.031 3.918 5.108 3.217 1.021 2.291 2.498-1.565 2.498-2.118 0-3.309.405-2.941 1 .683 1.105 5.446 1.342 7.918.393 2.598-.997 1.801-3.83-1.668-5.927L26.5 231.5l3.25-.313c1.788-.173 3.25-.735 3.25-1.25 0-1.481-7.628-1.09-8.912.457M105 234.5c0 4.84.25 5.598 1.75 5.307.964-.187 1.75-1.23 1.75-2.323 0-1.421.781-2.074 2.75-2.3 2.368-.273 2.75.04 2.75 2.25 0 1.614.556 2.566 1.5 2.566 1.152 0 1.5-1.278 1.5-5.5 0-4.222-.348-5.5-1.5-5.5-.833 0-1.5.889-1.5 2 0 1.538-.667 2-2.889 2-2.114 0-2.852-.459-2.75-1.712.077-.941-.648-1.874-1.611-2.073-1.503-.311-1.75.436-1.75 5.285m57-3.5c-1.1 1.1-2 2.675-2 3.5 0 2.705 3.811 5.5 7.5 5.5 1.925 0 3.5-.45 3.5-1s-1.012-1.007-2.25-1.015c-3.381-.023-4.964-1.437-4.587-4.098.265-1.875 1.034-2.454 3.587-2.7 4.363-.421 4.161-2.187-.25-2.187-2.167 0-4.262.762-5.5 2m-127 4.5c0 3.333.389 4.5 1.5 4.5s1.5-1.167 1.5-4.5-.389-4.5-1.5-4.5-1.5 1.167-1.5 4.5m6 0c0 3.333.389 4.5 1.5 4.5 1.048 0 1.5-1.056 1.5-3.5s.452-3.5 1.5-3.5c1.053 0 1.5 1.064 1.5 3.573 0 2.863.348 3.508 1.75 3.242 2.121-.402 2.919-5.305 1.2-7.375-.664-.8-2.918-1.44-5.072-1.44H41v4.5m13-2.5c-1.1 1.1-2 2.418-2 2.929 0 1.9 3.237 4.071 6.071 4.071 3.431 0 3.965-1.714.679-2.18-1.477-.21-2.25-1.007-2.25-2.32s.773-2.11 2.25-2.32c3.061-.434 2.861-2.18-.25-2.18-1.375 0-3.4.9-4.5 2m21.57.204c-1.313 1.874-1.342 2.509-.193 4.25 2.715 4.115 9.623 2.769 9.623-1.876 0-4.778-6.585-6.436-9.43-2.374M87 235.445c0 3.382.386 4.555 1.5 4.555 1.048 0 1.5-1.056 1.5-3.5 0-2.833.381-3.5 2-3.5s2 .667 2 3.5c0 2.502.444 3.5 1.557 3.5 1.214 0 1.49-.938 1.25-4.25l-.307-4.25-4.75-.305-4.75-.305v4.555M120 232c0 .55 1.125 1 2.5 1s2.5.45 2.5 1-.845 1-1.878 1c-2.252 0-4.553 2.494-3.649 3.956.355.574 2.857 1.044 5.561 1.044h4.916l-.616-3.25c-.338-1.787-1.057-3.812-1.597-4.5-1.164-1.482-7.737-1.695-7.737-.25m11.416.358c-.311.81-.419 2.749-.241 4.308.464 4.045 3.239 3.728 3.638-.416.444-4.606 3.187-4.391 3.187.25 0 2.502.444 3.5 1.557 3.5 1.214 0 1.49-.938 1.25-4.25-.306-4.231-.326-4.251-4.566-4.558-3.042-.22-4.421.113-4.825 1.166M144 231.94c0 .583 1.125 1.06 2.5 1.06 3.513 0 3.118 1.626-.575 2.365-2.234.447-2.984 1.097-2.741 2.375.26 1.364 1.513 1.828 5.575 2.062 3.192.184 5.241-.109 5.241-.75 0-.578-.421-1.052-.937-1.052-.515 0-1.077-1.463-1.25-3.25-.286-2.967-.639-3.277-4.063-3.56-2.171-.18-3.75.136-3.75.75m41.193 3.31l.307 4.25 4.75.305 4.75.305v-4.555c0-3.382-.386-4.555-1.5-4.555-1.053 0-1.5 1.064-1.5 3.573 0 2.863-.348 3.508-1.75 3.242-1.153-.218-1.857-1.438-2.063-3.573-.2-2.07-.854-3.242-1.808-3.242-1.139 0-1.421 1.009-1.186 4.25m12.807.402c0 3.198.397 4.348 1.5 4.348 1.048 0 1.5-1.056 1.5-3.5 0-2.833.381-3.5 2-3.5 1.42 0 2 .667 2 2.3 0 3.074 1.799 4.7 5.2 4.7 3.335 0 3.77-1.723.55-2.18-1.477-.21-2.25-1.007-2.25-2.32s.773-2.11 2.25-2.32c1.238-.175 2.25-.738 2.25-1.25 0-1.232-3.649-1.188-6.005.073-1.149.615-2.097.641-2.452.067-.318-.514-1.92-.897-3.56-.85-2.84.08-2.983.293-2.983 4.432M78 235.5c0 1.982.439 2.562 1.75 2.31.963-.186 1.75-1.225 1.75-2.31s-.787-2.124-1.75-2.31c-1.311-.252-1.75.328-1.75 2.31m45 1.5c-1.213.784-1.069.972.75.985 1.237.008 2.25-.435 2.25-.985 0-1.253-1.061-1.253-3 0m23.5 0c-.34.55.084 1 .941 1s1.559-.45 1.559-1-.423-1-.941-1-1.219.45-1.559 1" fill="#1976D2" fill-rule="evenodd"/></svg>