<svg xmlns="http://www.w3.org/2000/svg" width="256" height="256"><path fill-opacity=".016" d="M0 128.004v128.004l128.25-.254 128.25-.254.254-127.75L257.008 0H0v128.004m.485.496c0 70.4.119 99.053.265 63.672.146-35.38.146-92.98 0-128C.604 29.153.485 58.1.485 128.5" fill="#1976D2" fill-rule="evenodd"/><path fill-opacity=".195" d="M170 15v9h-17v10h17V60.565l-5.719 6.968c-3.146 3.832-17.126 20.563-31.067 37.181l-25.347 30.215-13.183-15.731a6678.62 6678.62 0 01-21.184-25.4c-4.4-5.318-8.45-9.67-9-9.673-.793-.003-49.44 56.145-61.892 71.436l-2.892 3.551 3.142 3.242L6 165.595V249h238v-46.122c0-37.98.232-45.93 1.314-45.033 1.731 1.438 11.338-6.744 10.46-8.908-.32-.79-17.274-21.012-37.675-44.937l-37.092-43.5-.004-13.25L181 34h18.11l-.305-4.75-.305-4.75-8.75-.289-8.75-.289V6h-11v9M63.5 234c0 2.793.459 5 1.039 5 .572 0 1.022-1.238 1-2.75-.03-2.105.488-2.825 2.211-3.07 1.914-.271 2.25.139 2.25 2.75 0 1.689.45 3.07 1 3.07s1-1.575 1-3.5c0-3.353-.151-3.5-3.607-3.5-2.795 0-3.477-.338-3.031-1.5.317-.828.029-1.5-.643-1.5-.796 0-1.219 1.735-1.219 5m110.5 0c0 2.75.45 5 1 5s1-1.35 1-3c0-2.533.389-3 2.5-3 2.111 0 2.5.467 2.5 3 0 1.65.479 3 1.063 3 .598 0 .926-1.424.75-3.25-.275-2.858-.705-3.288-3.563-3.563-2.013-.194-3.25-.86-3.25-1.75 0-.791-.45-1.437-1-1.437s-1 2.25-1 5m42 0c0 2.75.45 5 1 5s1-1.35 1-3c0-2.533.389-3 2.5-3 2.111 0 2.5.467 2.5 3 0 1.65.479 3 1.063 3 .598 0 .926-1.424.75-3.25-.275-2.858-.705-3.288-3.563-3.563-2.013-.194-3.25-.86-3.25-1.75 0-.791-.45-1.437-1-1.437s-1 2.25-1 5m-191.616-2.812c-.423.684.027 1.639 1.059 2.25.987.584 2.751 1.808 3.921 2.72 2.115 1.649 2.107 1.663-1.369 2.66-1.922.551-2.737 1.042-1.81 1.092 2.456.131 6.815-1.698 6.815-2.86 0-.549-1.462-1.742-3.25-2.651-4.306-2.191-4.436-2.354-2.721-3.438 1.245-.787 1.211-.933-.22-.946-.93-.008-2.021.52-2.425 1.173M106 234.5c0 2.475.45 4.5 1 4.5s1-.9 1-2c0-1.619.667-2 3.5-2s3.5.381 3.5 2c0 1.1.45 2 1 2s1-2.025 1-4.5-.45-4.5-1-4.5-1 .9-1 2c0 1.619-.667 2-3.5 2s-3.5-.381-3.5-2c0-1.1-.45-2-1-2s-1 2.025-1 4.5m56.571-2.929c-2.987 2.988-1.11 6.739 3.929 7.851l3 .662-3.25-2.027c-3.781-2.359-3.981-3.326-1.25-6.057 1.467-1.467 1.619-2 .571-2-.785 0-2.135.707-3 1.571M36 235.5c0 1.925.45 3.5 1 3.5s1-1.575 1-3.5-.45-3.5-1-3.5-1 1.575-1 3.5m5-.057c0 1.956.45 3.557 1 3.557s1-1.35 1-3c0-2.533.389-3 2.5-3 2.111 0 2.5.467 2.5 3 0 1.65.479 3 1.063 3 .598 0 .926-1.424.75-3.25-.294-3.051-.574-3.269-4.563-3.557l-4.25-.308v3.558m13.04-1.991c-1.747 2.105-.378 5.246 2.614 5.997 1.42.357 2.829.401 3.131.1.301-.302-.147-.549-.996-.549-4.092 0-4.489-5.518-.454-6.305 1.838-.359 1.768-.443-.463-.559-1.445-.075-3.169.517-3.832 1.316m21.999.476c-1.398 2.612-.4 4.765 2.554 5.506 4.784 1.201 8.361-3.08 5.207-6.234-1.898-1.898-6.591-1.458-7.761.728M88 235.443c0 1.956.45 3.557 1 3.557s1-1.35 1-3c0-2.533.389-3 2.5-3 2.111 0 2.5.467 2.5 3 0 1.65.479 3 1.063 3 .598 0 .926-1.424.75-3.25-.294-3.051-.574-3.269-4.563-3.557l-4.25-.308v3.558m35.25-2.727c2.72.412 3.915 2.256 1.5 2.314-.687.017-.453.495.521 1.062.974.567 1.51 1.453 1.191 1.969-.319.517.031.939.778.939.964 0 1.24-1.017.95-3.5-.388-3.318-.598-3.492-4.049-3.35-3.021.124-3.173.221-.891.566m8.75 2.727c0 1.956.45 3.557 1 3.557s1-1.35 1-3c0-2.533.389-3 2.5-3 2.111 0 2.5.467 2.5 3 0 1.65.479 3 1.063 3 .598 0 .926-1.424.75-3.25-.294-3.051-.574-3.269-4.563-3.557l-4.25-.308v3.558m15.25-2.727c2.878.436 3.635 1.76 1.5 2.622-1 .403-1 .52 0 .583.688.043 1.25.706 1.25 1.472s.569 1.611 1.265 1.878c.921.354 1.164-.567.895-3.393-.359-3.76-.481-3.873-4.015-3.728-3.02.124-3.174.221-.895.566m38.75 2.677c0 2.172.569 3.612 1.582 4 2.541.975 4.078.64 2.168-.473-1.041-.606-1.75-2.215-1.75-3.97 0-1.622-.45-2.95-1-2.95s-1 1.527-1 3.393m6.81.107c-.282 2.414-.005 3.5.891 3.5.818 0 1.299-1.296 1.299-3.5 0-1.925-.401-3.5-.891-3.5-.489 0-1.074 1.575-1.299 3.5m6.19 0c0 1.925.388 3.5.861 3.5.474 0 .647-1.12.386-2.49-.368-1.925.06-2.704 1.888-3.436 2.354-.943 2.353-.948-.385-1.011-2.488-.057-2.75.27-2.75 3.437m8.2-2.3c-2.835 2.835.363 7.038 5.115 6.721.652-.043-.078-.539-1.621-1.102-3.565-1.3-3.378-4.91.306-5.928l2.5-.692-2.55-.099c-1.402-.055-3.09.44-3.75 1.1m-129.841 1.307c-.353.92.057 2.337.927 3.207 2.124 2.124 4.941.907 4.534-1.96-.394-2.777-4.513-3.717-5.461-1.247m43.072 2.605c-.785 1.269 1.335 2.907 3.569 2.757.995-.067.886-.26-.323-.572-1.073-.278-1.601-1.054-1.282-1.884.64-1.667-.968-1.914-1.964-.301m24 0c-.785 1.269 1.335 2.907 3.569 2.757.995-.067.886-.26-.323-.572-1.073-.278-1.601-1.054-1.282-1.884.64-1.667-.968-1.914-1.964-.301" fill="#1976D2" fill-rule="evenodd"/><path fill-opacity=".223" d="M170.788 15.25l-.288 9.25-8.75.289-8.75.289V34h18v25.619l-13.25 16.086c-28.111 34.126-49.276 59.157-49.872 58.98-.342-.102-10.165-11.548-21.828-25.435C74.386 95.362 64.687 84 64.496 84c-.191 0-14.84 16.905-32.553 37.567L-.263 159.133l3.174 3.275 3.174 3.275-.063 41.659L5.959 249h238.066l-.263-46.5c-.144-25.575.027-46.5.381-46.5s.922.727 1.263 1.615c.504 1.314 1.506.806 5.357-2.711 2.605-2.38 4.883-4.67 5.061-5.087.178-.418-16.585-20.606-37.25-44.863L181 60.851V34h17v-9h-17V6h-9.925l-.287 9.25M41.75 131.43L20 156.845V221h16v-26.929c0-23.147.221-27.149 1.571-28.5 2.088-2.087 4.743-1.987 6.774.258 1.308 1.445 1.655 3.928 1.655 11.847v10.018l5.221-2.584c4.223-2.09 6.666-2.584 12.779-2.584 6.113 0 8.556.494 12.779 2.584L82 187.694v-10.192c0-8.973.243-10.412 2.03-12.029 1.609-1.456 2.596-1.639 4.75-.882l2.72.956.266 27.727.266 27.726H107.5l-.192-32.25-.191-32.25-21.699-25.25c-11.934-13.888-21.748-25.247-21.808-25.242-.061.004-9.898 11.444-21.86 25.422m179.25.948c0 .207.787.995 1.75 1.75 1.586 1.243 1.621 1.208.378-.378-1.307-1.666-2.128-2.195-2.128-1.372m5 6c0 .207.787.995 1.75 1.75 1.586 1.243 1.621 1.208.378-.378-1.307-1.666-2.128-2.195-2.128-1.372M54.383 192.914C47.825 195.891 47 197.827 47 210.223V221h35.177l-.339-10.898c-.285-9.184-.652-11.251-2.338-13.141-5.121-5.744-17.123-7.678-25.117-4.047m9.256 35.78c-.351.352-.639 3.039-.639 5.973 0 4.074.354 5.333 1.5 5.333 1.048 0 1.5-1.056 1.5-3.5 0-2.833.381-3.5 2-3.5s2 .667 2 3.5c0 1.925.45 3.5 1 3.5s1-1.8 1-4c0-3.778-.167-4-3-4-1.945 0-3-.507-3-1.441 0-1.671-1.427-2.798-2.361-1.865M174 234c0 3.333.444 6 1 6 .55 0 1-1.606 1-3.57 0-3.115.282-3.528 2.218-3.25 1.699.245 2.225 1 2.25 3.232.017 1.601.624 3.111 1.349 3.355.971.328 1.233-.568 1-3.411-.291-3.542-.582-3.882-3.567-4.169-2.44-.236-3.25-.796-3.25-2.25 0-1.066-.45-1.937-1-1.937-.556 0-1 2.667-1 6m42 0c0 3.333.444 6 1 6 .55 0 1-1.606 1-3.57 0-3.129.277-3.53 2.25-3.25 1.725.245 2.323 1.079 2.563 3.57.447 4.63 2.187 4.033 2.187-.75 0-3.905-.083-4-3.5-4-2.833 0-3.5-.381-3.5-2 0-1.1-.45-2-1-2-.556 0-1 2.667-1 6m-190.25-4.311c-2.669.698-2.091 2.996 1.25 4.97 1.65.975 3 2.125 3 2.557 0 .431-1.35.784-3 .784s-3 .45-3 1c0 1.309 4.597 1.286 7.066-.035 2.706-1.449 2.416-2.664-1.066-4.465-3.651-1.888-3.882-3.5-.5-3.5 1.375 0 2.5-.45 2.5-1 0-1.007-3.011-1.157-6.25-.311m10.063-.006c.721.289 1.584.253 1.916-.079.332-.332-.258-.568-1.312-.525-1.165.048-1.402.285-.604.604M106 234.5c0 3.025.45 5.5 1 5.5s1-1.154 1-2.563c0-2.29.347-2.53 3.25-2.25 2.426.234 3.251.799 3.254 2.231.003 1.055.565 2.105 1.25 2.333.897.299 1.246-1.172 1.246-5.251 0-4.079-.349-5.55-1.246-5.251-.685.228-1.247 1.278-1.25 2.333-.003 1.432-.828 1.997-3.254 2.231-2.903.28-3.25.04-3.25-2.25 0-1.409-.45-2.563-1-2.563s-1 2.475-1 5.5m59.5-4.776c-7.339 1.804-5.095 10.276 2.723 10.276 3.877 0 3.487-1.805-.473-2.187-2.875-.277-3.25-.659-3.25-3.313s.375-3.036 3.25-3.313c1.787-.173 3.25-.735 3.25-1.25 0-.975-2.074-1.055-5.5-.213M35.829 236c.209 2.2.784 4 1.276 4s.895-1.8.895-4c0-2.577-.454-4-1.276-4-.886 0-1.16 1.223-.895 4m5.171.083c0 4.923 2.329 4.998 2.813.09.234-2.364.808-3.173 2.25-3.173 1.547 0 1.937.705 1.937 3.5 0 1.925.45 3.5 1 3.5s1-1.8 1-4v-4h-9v4.083m13.2-2.883c-2.981 2.981-.079 6.894 4.984 6.721 2.139-.073 2.101-.157-.49-1.102-3.565-1.3-3.378-4.91.306-5.928 2.385-.66 2.36-.696-.55-.791-1.677-.055-3.59.44-4.25 1.1m21.882.201c-1.883 2.269-.896 4.94 2.23 6.04 3.725 1.31 6.188-.302 6.188-4.05 0-2.595-.368-2.922-3.586-3.192-2.277-.19-4.04.248-4.832 1.202M88 235.943c0 2.231.45 4.057 1 4.057s1-1.575 1-3.5c0-2.795.39-3.5 1.937-3.5 1.442 0 2.016.809 2.25 3.173.172 1.745.905 3.368 1.63 3.606.969.318 1.233-.584 1-3.423-.309-3.764-.419-3.863-4.567-4.163l-4.25-.308v4.058m35.25-3.264c3.645.602 3.494 1.999-.306 2.833-3.731.82-3.685 3.848.066 4.265 2.176.242 2.266.139.719-.812-.974-.598-1.51-1.51-1.191-2.026 1.011-1.637 3.209-1.015 3.752 1.061.287 1.1 1.169 2 1.959 2 1.1 0 1.295-.877.832-3.75-.576-3.575-.791-3.756-4.593-3.888-2.431-.084-2.915.04-1.238.317M132 236c0 4.783 1.74 5.38 2.187.75.239-2.479.788-3.25 2.313-3.25 1.525 0 2.074.771 2.313 3.25.447 4.63 2.187 4.033 2.187-.75v-4h-9v4m15.25-3.284c3.648.553 3.494 1.962-.306 2.796-2.119.466-2.958 1.179-2.737 2.33.239 1.246 1.518 1.694 5.149 1.801 3.494.104 4.528-.159 3.737-.95-.601-.601-1.093-2.353-1.093-3.893 0-2.596-.274-2.789-3.75-2.65-3.016.12-3.212.231-1 .566m38.94 3.034c.303 3.67.401 3.753 4.56 3.894l4.25.145v-3.895c0-4.704-1.746-5.218-2.187-.644-.239 2.479-.788 3.25-2.313 3.25-1.525 0-2.074-.771-2.313-3.25-.173-1.787-.762-3.25-1.311-3.25-.548 0-.857 1.688-.686 3.75m12-.077c.413 4.896 2.81 5.732 2.81.98 0-2.849.426-3.596 2.25-3.947 1.368-.264.756-.487-1.56-.57-3.8-.136-3.81-.125-3.5 3.537m9.06-3.011c-1.591.642-1.623 4.565-.05 6.138 1.483 1.483 5.8 1.587 5.8.141 0-.582-.384-.822-.853-.532-.469.29-1.618-.033-2.554-.717-2.16-1.58-1.167-4.43 1.742-4.997 1.891-.369 1.848-.43-.335-.48-1.375-.031-3.062.17-3.75.447M78 235.441c0 3.148 1.77 4.217 3.733 2.255 1.953-1.954.96-4.696-1.702-4.696-1.487 0-2.031.654-2.031 2.441m68.543 1.49c-.317.512-.118 1.213.441 1.559 1.193.737 3.016-.199 3.016-1.549 0-1.217-2.707-1.225-3.457-.01" fill="#1976D2" fill-rule="evenodd"/><path fill-opacity=".809" d="M171 15.5V25h-17v9h17v26.194l-8.75 10.642c-18.313 22.273-53.359 63.676-54.126 63.943-.44.154-10.427-11.195-22.192-25.22C74.167 95.534 64.24 84.383 63.873 84.78 58.546 90.526 1 158.358 1 158.89c0 .405 1.35 2.029 3 3.61l3 2.874V249h236v-94.31l2.043 1.849c2.009 1.818 2.118 1.774 6.52-2.629l4.478-4.477-37.491-43.967L181.06 61.5l-.03-13.75L181 34h17v-9h-17V6h-10v9.5m-22.25 95.093L122 143.082V221h30v-27.965c0-26.624.093-28.014 1.934-29 4.369-2.338 4.45-2.244 22.227 25.651l14.339 22.498.269-22.784c.23-19.438.51-23.051 1.905-24.593 2.116-2.337 3.849-2.284 6.326.193 1.901 1.901 2 3.333 2 29v27h28v-81.059l-18.194-21.22C200.799 107.049 189.01 93.45 184.607 88.5c-4.403-4.95-8.254-9.314-8.556-9.698-.303-.383-12.588 13.923-27.301 31.791M41.573 131.007L20 156.131V222h16v-26.566c0-16.4.396-27.306 1.035-28.5.669-1.25 2.093-1.934 4.025-1.934 3.996 0 4.94 2.703 4.94 14.148 0 4.96.337 8.845.75 8.633 5.684-2.926 9.927-4.146 15.75-4.529 6.808-.447 8.586-.047 18.716 4.214 1.555.654 1.743-.348 2-10.622L83.5 165.5l2.81-.322c5.647-.648 5.69-.426 5.69 29.444V222h16v-65.232l-21.634-25.134c-11.898-13.824-21.99-25.273-22.426-25.443-.436-.17-10.501 10.997-22.367 24.816M161 200.333V221h13c7.15 0 13-.223 13-.496 0-.445-24.698-39.412-25.619-40.421-.21-.229-.381 8.884-.381 20.25m-106.685-7.899C47.104 195.791 46 198.316 46 211.45V222h36v-23.264l-3.358-3.167c-6.254-5.898-15.761-7.124-24.327-3.135M35 229c0 .55.675 1 1.5 1s1.5-.45 1.5-1-.675-1-1.5-1-1.5.45-1.5 1m28 5c0 4.667.333 6 1.5 6 1.053 0 1.5-1.064 1.5-3.573 0-2.863.348-3.508 1.75-3.242 1.153.218 1.857 1.438 2.063 3.573.437 4.516 3.187 4.399 3.187-.136 0-3.873-2.081-6.095-4.995-5.334-1.489.39-2.005.034-2.005-1.382 0-1.048-.675-1.906-1.5-1.906-1.167 0-1.5 1.333-1.5 6m110.667-5.333c-.367.366-.667 3.066-.667 6 0 4.666.25 5.333 2 5.333 1.619 0 2-.667 2-3.5 0-2.444.452-3.5 1.5-3.5s1.5 1.056 1.5 3.5c0 2.502.444 3.5 1.557 3.5 1.214 0 1.49-.938 1.25-4.25-.275-3.803-.596-4.283-3.057-4.566-1.574-.182-2.75-.93-2.75-1.75 0-1.47-2.139-1.962-3.333-.767M216 234c0 4.667.333 6 1.5 6 1.048 0 1.5-1.056 1.5-3.5s.452-3.5 1.5-3.5 1.5 1.056 1.5 3.5c0 2.502.444 3.5 1.557 3.5 1.214 0 1.49-.938 1.25-4.25-.282-3.907-.529-4.247-3.057-4.211-1.99.029-2.75-.455-2.75-1.75 0-.984-.675-1.789-1.5-1.789-1.167 0-1.5 1.333-1.5 6m-191.333-4.333c-1.531 1.53-.449 3.958 2.589 5.807l3.244 1.975-3.25.339c-4.855.506-3.937 2.377.991 2.019 5.435-.394 6.304-3.02 1.839-5.561C26.202 232.039 26.176 231 30 231c1.65 0 3-.45 3-1 0-1.104-7.271-1.395-8.333-.333m80.735.728c-.294.767-.393 3.126-.219 5.242.224 2.712.833 3.944 2.067 4.178 1.299.246 1.75-.331 1.75-2.242 0-2.078.481-2.573 2.5-2.573 2 0 2.5.5 2.5 2.5 0 1.556.567 2.5 1.5 2.5 1.152 0 1.5-1.278 1.5-5.5 0-4.222-.348-5.5-1.5-5.5-.933 0-1.5.944-1.5 2.5 0 2-.5 2.5-2.5 2.5s-2.5-.5-2.5-2.5c0-2.714-2.666-3.533-3.598-1.105m57.821.162c-2.853 1.998-3.023 6.945-.289 8.408 2.472 1.323 8.066 1.347 8.066.035 0-.55-1.07-1-2.378-1-5.572 0-5.817-6.154-.271-6.816 1.457-.174 2.649-.737 2.649-1.25 0-1.503-5.356-1.074-7.777.623m-127.556 1.11c-.367.366-.667 2.391-.667 4.5 0 2.74.428 3.833 1.5 3.833 1.111 0 1.5-1.167 1.5-4.5 0-4.199-.744-5.422-2.333-3.833M41 235.698c0 3.157.399 4.302 1.5 4.302 1.053 0 1.5-1.064 1.5-3.573 0-2.836.354-3.506 1.714-3.244 1.149.222 1.725 1.31 1.75 3.305.024 2.018.599 3.085 1.786 3.317 1.395.272 1.75-.359 1.75-3.109 0-4.291-1.453-5.548-6.25-5.408-3.735.108-3.75.125-3.75 4.41m14.25-3.667c-1.614.649-2.25 1.731-2.25 3.83 0 3.087 1.419 4.139 5.582 4.139 3.05 0 3.185-1.752.168-2.18-1.477-.21-2.25-1.007-2.25-2.32s.773-2.11 2.25-2.32c1.237-.175 2.25-.738 2.25-1.25 0-1.151-2.756-1.102-5.75.101m21.5.049c-2.009 1.17-2.318 4.952-.55 6.72 1.699 1.699 6.369 1.488 8.229-.371 2.058-2.059 1.982-3.018-.429-5.429-2.192-2.192-4.552-2.491-7.25-.92m10.811-.307c-.309.308-.561 2.285-.561 4.394 0 3.166.348 3.833 2 3.833 1.619 0 2-.667 2-3.5 0-2.444.452-3.5 1.5-3.5s1.5 1.056 1.5 3.5c0 2.502.444 3.5 1.557 3.5 1.214 0 1.49-.938 1.25-4.25-.307-4.248-.309-4.25-4.496-4.394-2.305-.079-4.442.108-4.75.417M120.5 232c-.361.583.656 1 2.441 1 1.682 0 3.059.45 3.059 1s-.705 1-1.566 1c-2.731 0-5.39 1.951-4.79 3.515.395 1.03 2.051 1.485 5.4 1.485h4.83l-.592-3.75c-.325-2.062-1.084-4.081-1.687-4.485-1.611-1.08-6.38-.923-7.095.235m11.5 3.658c0 3.193.397 4.342 1.5 4.342 1.048 0 1.5-1.056 1.5-3.5s.452-3.5 1.5-3.5 1.5 1.056 1.5 3.5c0 2.476.448 3.5 1.531 3.5 2.106 0 2.958-2.706 1.847-5.867-.794-2.258-1.527-2.646-5.152-2.725l-4.226-.093v4.343M144.5 232c-.351.567.49 1 1.941 1 1.407 0 2.559.45 2.559 1s-.845 1-1.878 1c-2.252 0-4.553 2.494-3.649 3.956.355.574 2.857 1.044 5.561 1.044h4.916l-.616-3.25c-.338-1.787-1.057-3.812-1.597-4.5-1.171-1.491-6.359-1.67-7.237-.25m41.346-.513c-.291.291-.257 2.213.075 4.271.576 3.574.793 3.756 4.841 4.049l4.238.308v-4.641c0-5.376-2.294-5.904-2.813-.647-.185 1.872-.877 3.173-1.687 3.173s-1.502-1.301-1.687-3.173c-.291-2.949-1.734-4.573-2.967-3.34M198 235.698c0 3.157.399 4.302 1.5 4.302 1.01 0 1.5-1.01 1.5-3.094 0-2.252.544-3.235 2-3.616 3.236-.846 2.292-2.1-1.5-1.993-3.442.098-3.5.17-3.5 4.401m8.897-2.815c-2.052 1.661-2.185 2.189-1.132 4.5.957 2.102 1.886 2.617 4.714 2.617 1.936 0 3.521-.45 3.521-1s-1.156-1-2.57-1c-2.092 0-2.51-.418-2.25-2.25.207-1.451 1.124-2.364 2.585-2.571 1.245-.177 2.006-.74 1.691-1.25-.938-1.517-4.071-1.062-6.559.954m-128.209.763c-1.541 1.54-.648 4.354 1.382 4.354 1.555 0 1.99-.539 1.75-2.172-.332-2.255-1.94-3.375-3.132-2.182M124 237c-1.282.828-1.246.972.25.985.963.008 1.75-.435 1.75-.985 0-1.22-.113-1.22-2 0m23 0c-1.213.784-1.069.972.75.985 1.238.008 2.25-.435 2.25-.985 0-1.253-1.061-1.253-3 0" fill="#1976D2" fill-rule="evenodd"/></svg>